<svg xmlns="http://www.w3.org/2000/svg" viewBox="0 0 440.7 191.63"><defs><style>.cls-1{fill:#040505;stroke:#040505;stroke-miterlimit:10;stroke-width:5px;}</style></defs><g id="Layer_2" data-name="Layer 2"><g id="mitism_4" data-name="mitism 4"><path class="cls-1" d="M2.56,112.2Q2.11,83.79,5.22,77.79q2.22-2.66,4.33-1.55c1.4.74,1.74,2.15,1,4.22q-1.79,5.78-2.11,22.86t1.22,26.42c.15,1.48.37,2.22.67,2.22s.81-1.22,1.55-3.66,1.85-6.69,3.33-12.77Q29,65.8,43.63,52.27,52.95,46,57.39,58.7c.44,1.33.78,4.89,1,10.66s.4,14.36.55,25.75q.23,6.66.34,12.54t.22,10.44c.07,3,.14,5.44.22,7.21s.19,2.67.33,2.67c.15.15.63-.78,1.45-2.78s1.74-4.62,2.77-7.88q8.45-24.65,14.1-34.63t11-10c3.11,0,5.21,1.59,6.33,4.77S97.57,86.9,98,96.22q.66,17.1,2.22,25.2t4.44,10.1c.73.89,1.92.81,3.55-.22q4.88-2.22,11.32-16.87a74,74,0,0,1,4.44-9.11c1.63-1.47,3.18-1.33,4.66.45q.67,3.11-3.77,12.43a64.82,64.82,0,0,1-9.1,14.65Q108,140.62,102,137.18t-8.21-17q-.9-6.66-1.56-20.87A130.31,130.31,0,0,0,91,83.57q-.78-4.21-2.11-4.22c-1-.15-2.48,1.44-4.33,4.77a143.31,143.31,0,0,0-6.65,14.43Q74,108,69.6,121.08q-3.78,10.89-5.55,14c-1.19,2.08-2.59,3.11-4.22,3.11q-4.21,0-5.44-7.33t-1-31.52q0-23.08-1-33T49,56.48c-.88,0-2.48,1.48-4.77,4.44a66.89,66.89,0,0,0-6.33,10Q29.42,88,22.31,113.76q-3.54,12.87-5.77,20.2-4,13.77-9.1,8.44Q3.22,138.62,2.56,112.2Z"/><path class="cls-1" d="M131.31,137.4A40,40,0,0,1,128,126.64a181.39,181.39,0,0,1-.22-54.4,6.59,6.59,0,0,1,2.89-5.77c2.22-.74,3.36-.11,3.44,1.89a20.67,20.67,0,0,1-.33,5,188.67,188.67,0,0,0-1.34,26,88.21,88.21,0,0,0,3.11,31.74,19.6,19.6,0,0,0,6.11,9.11q4.1,3.33,10.1-1.11a40.09,40.09,0,0,0,9.54-16q3.1-8,5.78-16.43a6.61,6.61,0,0,1,2.22-3.77,2.81,2.81,0,0,1,4,.22,3.75,3.75,0,0,1,0,3.11,126.92,126.92,0,0,1-8.88,25.53,46.22,46.22,0,0,1-8.55,11.43A15.07,15.07,0,0,1,143.3,148a11.84,11.84,0,0,1-4.66-1.78A22.48,22.48,0,0,1,131.31,137.4Zm.22-94.24a4.63,4.63,0,0,1,4.11-1.55,3.76,3.76,0,0,1,3.44,2.44,6.46,6.46,0,0,1-.66,4.44C136.94,51,134.87,52,132.2,51.6a2.83,2.83,0,0,1-1.11-.67A6.35,6.35,0,0,1,131.53,43.16Z"/><path class="cls-1" d="M235.65,30.29a2.44,2.44,0,0,1,.22,1.11A2.14,2.14,0,0,1,234,33.62q-1.89.45-3.45.66-7.54.45-15.09.45-5.32,0-9.66.22t-7.1.44c-1.85.15-2.85.22-3,.22a8.43,8.43,0,0,0-1.55,3.78,267.9,267.9,0,0,1-18.43,51.5l-3.33,6.44q.23,12.89,0,26.42a214.13,214.13,0,0,0,1.11,25.2q1.33,13.43,6.22,20.53t14.87-.44a48.49,48.49,0,0,0,12.88-18.43q7.32-15.09,13.32-30.63c1-2.67,2-5.15,2.88-7.44s1.63-4.18,2.22-5.66,1-2.3,1.34-2.44q3.1-2.44,4.44,1.77-2.67,12.66-15.32,40.4a151.45,151.45,0,0,1-7.66,15,47.32,47.32,0,0,1-10.77,12.76,17.23,17.23,0,0,1-15.09,3.78,18,18,0,0,1-11.1-10.88,66.34,66.34,0,0,1-4.89-21.42,207.92,207.92,0,0,1-.44-23.42q0-7.77-.45-15.54a10.73,10.73,0,0,0-.66-5.77q-1.34-1.56.44-4.22C166.61,95,167.5,90,168.39,82q2.88-27.3,6.43-43.95l.67-2-14.87.44q-14,.68-19.54,1.11c-3.11.45-5,.15-5.77-.88-1.63-1.34-1.7-2.59-.23-3.78q.45-.66,3.78-1.11c2.22-.29,5.77-.52,10.66-.66q12.64-.45,20-1.11l7.11-.45,2-7.55Q184.81-.56,191.7,3q4.88.88,4.88,16.65V29h19.31c2.81,0,5.7,0,8.66-.11a47.58,47.58,0,0,1,8.66.56A3.31,3.31,0,0,1,235.65,30.29ZM188.59,37c.14-.59,0-1-.34-1.11a11.1,11.1,0,0,0-3-.23c-2.67,0-4,.45-4,1.34q-5.1,25.08-5.77,39.74a25.22,25.22,0,0,0,1.44-3.45q1.22-3.21,3-7.88,3.76-10.65,6.22-18.87Q188.15,38.95,188.59,37Zm2.22-12.43a42.22,42.22,0,0,0,.22-7.33,24.35,24.35,0,0,0-.78-5.33c-.37-1.18-.85-1.33-1.44-.44a33.2,33.2,0,0,0-2,5q-1.34,3.89-2.44,7.77a30.38,30.38,0,0,0-1.11,4.55c0,.89,1.11,1.19,3.33.89l3.55-.22Z"/><path class="cls-1" d="M233,137.4a40,40,0,0,1-3.33-10.76,181.39,181.39,0,0,1-.22-54.4,6.59,6.59,0,0,1,2.89-5.77c2.22-.74,3.36-.11,3.44,1.89a20.67,20.67,0,0,1-.33,5,190.26,190.26,0,0,0-1.34,26,88.43,88.43,0,0,0,3.11,31.74,19.6,19.6,0,0,0,6.11,9.11q4.09,3.33,10.1-1.11a40.09,40.09,0,0,0,9.54-16q3.12-8,5.78-16.43a6.61,6.61,0,0,1,2.22-3.77,2.81,2.81,0,0,1,4,.22,3.75,3.75,0,0,1,0,3.11,126.92,126.92,0,0,1-8.88,25.53,46.42,46.42,0,0,1-8.54,11.43A15.1,15.1,0,0,1,245,148a11.84,11.84,0,0,1-4.66-1.78A22.48,22.48,0,0,1,233,137.4Zm.23-94.24a4.6,4.6,0,0,1,4.1-1.55,3.76,3.76,0,0,1,3.44,2.44,6.46,6.46,0,0,1-.66,4.44c-1.48,2.52-3.55,3.55-6.22,3.11a2.83,2.83,0,0,1-1.11-.67A6.34,6.34,0,0,1,233.21,43.16Z"/><path class="cls-1" d="M316.23,105.77q-.89,6.44-18.2,24.64l-9.55,9.32,1.33,6a54.48,54.48,0,0,1,.67,21.31,29,29,0,0,1-10.66,18A17.93,17.93,0,0,1,269,189.13q-5.77.1-10.22-5a16.25,16.25,0,0,1-3.88-11.54,27.35,27.35,0,0,1,3.22-11.77,67.39,67.39,0,0,1,16.65-18.2l6.44-5.33-1.78-4.66q-2.22-5.77-11.1-24-14.2-28.18-14.21-36.41a.64.64,0,0,1-.22-.44A25.48,25.48,0,0,1,256.4,59a14.43,14.43,0,0,1,9.88-8.11,15.83,15.83,0,0,1,12.54,3.44,17,17,0,0,1,6.11,11.44c.44,3.25.15,4.88-.89,4.88q-3.1.89-4.22-2.44t-2-5.77q-4.23-7.33-12-4.89a14.53,14.53,0,0,0-6,12q0,8.65,11.77,31.75Q277.82,114,282,123.08c1,2.52,2,4.63,2.78,6.33s1.29,2.7,1.44,3q6.44-4,19.76-20.43a96.75,96.75,0,0,1,6.22-8Q314.9,103.11,316.23,105.77ZM282.49,171.7a34.73,34.73,0,0,0,2-21.53,58.82,58.82,0,0,0-1.56-5.77q-3.1,1.11-14.21,12c0,.15-.07.23-.22.23A26,26,0,0,0,261,171.26a13.76,13.76,0,0,0,.45,4.88q2.66,7.77,8.88,6.11a18.41,18.41,0,0,0,10.21-7C281.23,174.07,281.9,172.88,282.49,171.7Z"/><path class="cls-1" d="M312,112.2q-.45-28.41,2.67-34.41,2.22-2.66,4.33-1.55t1,4.22q-1.77,5.78-2.1,22.86t1.22,26.42c.14,1.48.37,2.22.66,2.22s.81-1.22,1.56-3.66,1.85-6.69,3.33-12.77q13.75-49.73,28.41-63.26,9.33-6.23,13.77,6.43c.44,1.33.77,4.89,1,10.66s.4,14.36.55,25.75q.23,6.66.33,12.54c.08,3.93.15,7.41.23,10.44s.14,5.44.22,7.21.18,2.67.33,2.67c.15.15.63-.78,1.44-2.78s1.74-4.62,2.78-7.88q8.43-24.65,14.1-34.63t11-10q4.65,0,6.32,4.77t2.33,18.76q.67,17.1,2.22,25.2t4.44,10.1c.74.89,1.92.81,3.56-.22q4.88-2.22,11.32-16.87a72.47,72.47,0,0,1,4.44-9.11c1.62-1.47,3.18-1.33,4.66.45q.66,3.11-3.78,12.43a64.47,64.47,0,0,1-9.1,14.65q-7.77,7.77-13.76,4.33t-8.22-17q-.88-6.66-1.55-20.87a132.48,132.48,0,0,0-1.22-15.76q-.78-4.21-2.11-4.22-1.56-.22-4.33,4.77a145.24,145.24,0,0,0-6.66,14.43q-3.88,9.44-8.32,22.53-3.78,10.89-5.55,14c-1.19,2.08-2.59,3.11-4.22,3.11q-4.21,0-5.44-7.33t-1-31.52q0-23.08-1-33t-3.44-9.88q-1.34,0-4.77,4.44a66.09,66.09,0,0,0-6.33,10q-8.44,17.1-15.54,42.85Q328.22,126.63,326,134q-4,13.77-9.1,8.44Q312.67,138.62,312,112.2Z"/></g></g></svg>